<svg id="svg" version="1.1" width="400" height="400" xmlns="http://www.w3.org/2000/svg" xmlns:xlink="http://www.w3.org/1999/xlink" style="display: block;"><g id="svgg"><path id="path0" d="M222.171 122.000 C 222.171 122.440,222.313 122.800,222.486 122.800 C 222.659 122.800,222.800 122.440,222.800 122.000 C 222.800 121.560,222.659 121.200,222.486 121.200 C 222.313 121.200,222.171 121.560,222.171 122.000 M176.015 276.182 C 175.502 276.800,175.761 277.600,176.473 277.600 C 176.766 277.600,176.762 277.436,176.458 277.070 C 176.138 276.684,176.146 276.414,176.490 276.070 C 176.748 275.812,176.856 275.600,176.729 275.600 C 176.602 275.600,176.280 275.862,176.015 276.182 " stroke="none" fill="#0000ff" fill-rule="evenodd"></path><path id="path1" d="" stroke="none" fill="#0080ff" fill-rule="evenodd"></path><path id="path2" d="M78.400 58.548 C 78.070 58.866,76.990 59.223,76.000 59.342 C 75.010 59.462,74.155 59.568,74.100 59.580 C 74.045 59.591,74.000 59.870,74.000 60.200 C 74.000 60.642,73.538 60.800,72.243 60.800 C 71.102 60.800,70.410 60.997,70.270 61.362 C 70.151 61.672,69.502 62.046,68.827 62.194 C 68.152 62.342,67.600 62.617,67.600 62.805 C 67.600 62.993,67.240 63.260,66.800 63.400 C 66.360 63.540,66.000 63.912,66.000 64.227 C 66.000 64.542,65.813 64.800,65.584 64.800 C 65.137 64.800,63.076 66.197,61.997 67.231 C 61.276 67.921,60.631 69.211,60.746 69.730 C 60.787 69.911,60.655 69.958,60.454 69.834 C 60.063 69.592,58.000 72.062,58.000 72.773 C 58.000 73.008,57.823 73.200,57.608 73.200 C 57.392 73.200,57.094 73.695,56.947 74.300 C 56.799 74.905,56.345 75.829,55.939 76.354 C 55.533 76.879,55.200 77.804,55.200 78.411 C 55.200 79.023,54.933 79.617,54.600 79.745 C 54.160 79.913,54.000 80.607,54.000 82.338 C 54.000 83.951,53.809 84.860,53.400 85.200 C 52.898 85.617,52.800 87.228,52.800 95.078 C 52.800 102.882,52.901 104.558,53.400 105.057 C 53.832 105.489,54.000 106.541,54.000 108.809 C 54.000 111.054,54.157 112.052,54.548 112.280 C 54.873 112.470,55.173 113.559,55.286 114.960 C 55.412 116.525,55.699 117.483,56.138 117.804 C 56.585 118.131,56.800 118.876,56.800 120.101 C 56.800 121.344,56.989 121.987,57.400 122.145 C 57.812 122.303,58.000 122.947,58.000 124.200 C 58.000 125.453,58.188 126.097,58.600 126.255 C 58.936 126.384,59.200 126.980,59.200 127.610 C 59.200 129.140,59.575 130.000,60.243 130.000 C 60.636 130.000,60.800 130.525,60.800 131.780 C 60.800 132.896,61.011 133.680,61.365 133.880 C 61.676 134.056,61.991 134.740,62.065 135.400 C 62.139 136.060,62.406 136.561,62.657 136.514 C 62.914 136.466,63.232 137.218,63.385 138.238 C 63.534 139.233,63.913 140.145,64.228 140.266 C 64.544 140.387,64.800 141.010,64.800 141.655 C 64.800 142.326,65.056 142.923,65.400 143.055 C 65.730 143.182,66.000 143.694,66.000 144.194 C 66.000 144.693,66.258 145.317,66.574 145.579 C 66.890 145.841,67.264 146.583,67.406 147.228 C 67.548 147.872,67.919 148.400,68.232 148.400 C 68.615 148.400,68.800 148.857,68.800 149.800 C 68.800 150.778,68.981 151.200,69.400 151.200 C 69.765 151.200,70.000 151.572,70.000 152.151 C 70.000 152.674,70.258 153.317,70.574 153.579 C 70.890 153.841,71.264 154.583,71.406 155.228 C 71.548 155.872,71.919 156.400,72.232 156.400 C 72.563 156.400,72.800 156.796,72.800 157.351 C 72.800 157.874,73.070 158.526,73.400 158.800 C 73.730 159.074,74.000 159.552,74.000 159.862 C 74.000 160.171,74.250 160.521,74.555 160.638 C 74.860 160.755,75.216 161.380,75.345 162.026 C 75.482 162.709,75.835 163.200,76.190 163.200 C 76.603 163.200,76.800 163.593,76.800 164.413 C 76.800 165.121,77.049 165.721,77.400 165.855 C 77.730 165.982,78.000 166.323,78.000 166.614 C 78.000 166.905,78.246 167.389,78.547 167.690 C 78.848 167.991,79.220 168.634,79.374 169.119 C 79.528 169.603,79.912 170.000,80.227 170.000 C 80.573 170.000,80.800 170.400,80.800 171.013 C 80.800 171.569,81.070 172.129,81.400 172.255 C 81.730 172.382,82.000 172.742,82.000 173.055 C 82.000 173.369,82.259 173.724,82.576 173.846 C 82.892 173.967,83.266 174.592,83.407 175.233 C 83.548 175.875,83.919 176.400,84.232 176.400 C 84.544 176.400,84.800 176.760,84.800 177.200 C 84.800 177.644,85.067 178.000,85.400 178.000 C 85.800 178.000,86.000 178.400,86.000 179.200 C 86.000 179.955,86.205 180.400,86.553 180.400 C 86.858 180.400,87.201 180.760,87.316 181.200 C 87.431 181.640,87.812 182.000,88.163 182.000 C 88.604 182.000,88.800 182.369,88.800 183.200 C 88.800 184.000,89.000 184.400,89.400 184.400 C 89.730 184.400,90.000 184.676,90.000 185.013 C 90.000 185.349,90.259 185.724,90.576 185.846 C 90.892 185.967,91.262 186.571,91.397 187.188 C 91.759 188.834,95.200 189.350,95.200 187.757 C 95.200 187.451,95.470 187.200,95.800 187.200 C 96.130 187.200,96.400 186.958,96.400 186.662 C 96.400 186.366,96.760 185.798,97.200 185.400 C 97.640 185.002,98.000 184.344,98.000 183.938 C 98.000 183.532,98.270 183.200,98.600 183.200 C 98.930 183.200,99.200 182.930,99.200 182.600 C 99.200 182.270,99.449 182.000,99.753 182.000 C 100.058 182.000,100.401 181.640,100.516 181.200 C 100.631 180.760,101.012 180.400,101.363 180.400 C 101.713 180.400,102.000 180.149,102.000 179.843 C 102.000 179.536,102.270 179.182,102.600 179.055 C 102.930 178.929,103.200 178.549,103.200 178.213 C 103.200 177.876,103.470 177.600,103.800 177.600 C 104.130 177.600,104.400 177.358,104.400 177.062 C 104.400 176.766,104.760 176.198,105.200 175.800 C 105.640 175.402,106.000 174.834,106.000 174.538 C 106.000 174.242,106.270 174.000,106.600 174.000 C 106.933 174.000,107.200 173.644,107.200 173.200 C 107.200 172.756,107.467 172.400,107.800 172.400 C 108.175 172.400,108.400 172.021,108.400 171.387 C 108.400 170.831,108.130 170.271,107.800 170.145 C 107.465 170.016,107.200 169.422,107.200 168.800 C 107.200 168.178,106.935 167.584,106.600 167.455 C 106.270 167.329,106.000 166.809,106.000 166.301 C 106.000 165.793,105.640 165.070,105.200 164.693 C 104.760 164.316,104.400 163.646,104.400 163.204 C 104.400 162.756,104.134 162.400,103.800 162.400 C 103.431 162.400,103.200 162.025,103.200 161.429 C 103.200 160.894,102.930 160.187,102.600 159.857 C 102.270 159.527,102.000 158.897,102.000 158.457 C 102.000 158.017,101.739 157.396,101.420 157.077 C 101.101 156.758,100.724 156.038,100.584 155.477 C 100.443 154.917,100.074 154.361,99.764 154.241 C 99.454 154.122,99.200 153.499,99.200 152.855 C 99.200 152.185,98.944 151.587,98.600 151.455 C 98.270 151.329,98.000 150.752,98.000 150.174 C 98.000 149.596,97.742 148.646,97.426 148.062 C 97.111 147.478,96.747 146.505,96.619 145.900 C 96.490 145.295,96.118 144.800,95.792 144.800 C 95.348 144.800,95.200 144.300,95.200 142.800 C 95.200 141.289,95.053 140.800,94.600 140.800 C 94.164 140.800,94.000 140.351,94.000 139.160 C 94.000 138.259,93.747 136.954,93.438 136.260 C 93.129 135.567,92.773 134.020,92.647 132.821 C 92.506 131.477,92.186 130.512,91.810 130.301 C 90.916 129.801,90.897 112.750,91.789 112.009 C 92.114 111.740,92.497 110.889,92.642 110.118 C 92.786 109.347,93.421 107.749,94.052 106.566 C 94.684 105.383,95.200 104.142,95.200 103.808 C 95.200 103.473,95.401 103.200,95.647 103.200 C 95.893 103.200,96.793 102.501,97.647 101.647 C 98.501 100.793,99.200 99.893,99.200 99.647 C 99.200 99.401,99.656 99.200,100.213 99.200 C 100.769 99.200,101.329 98.930,101.455 98.600 C 101.582 98.270,102.026 98.000,102.443 98.000 C 102.859 98.000,103.200 97.730,103.200 97.400 C 103.200 97.013,103.591 96.798,104.300 96.795 C 106.013 96.786,107.200 96.360,107.200 95.753 C 107.200 95.336,107.871 95.200,109.924 95.200 C 111.699 95.200,112.917 94.996,113.424 94.613 C 114.538 93.770,121.303 93.760,122.000 94.600 C 122.379 95.056,123.409 95.200,126.305 95.200 C 129.363 95.200,130.206 95.328,130.589 95.852 C 130.887 96.260,131.879 96.581,133.233 96.707 C 134.425 96.819,135.755 97.156,136.189 97.455 C 136.623 97.755,137.838 98.000,138.889 98.000 C 140.321 98.000,140.800 98.150,140.800 98.600 C 140.800 99.053,141.289 99.200,142.800 99.200 C 144.300 99.200,144.800 99.348,144.800 99.792 C 144.800 100.118,145.295 100.490,145.900 100.619 C 146.505 100.747,147.478 101.111,148.062 101.426 C 148.646 101.742,149.681 102.000,150.362 102.000 C 151.196 102.000,151.600 102.196,151.600 102.600 C 151.600 102.979,151.982 103.200,152.637 103.200 C 153.207 103.200,154.131 103.560,154.691 104.000 C 155.250 104.440,156.114 104.800,156.611 104.800 C 157.108 104.800,157.618 105.070,157.745 105.400 C 157.871 105.730,158.409 106.000,158.938 106.000 C 159.468 106.000,160.117 106.260,160.381 106.577 C 160.644 106.894,161.431 107.209,162.130 107.277 C 162.828 107.345,163.340 107.560,163.266 107.755 C 163.079 108.250,164.026 108.787,165.100 108.794 C 165.631 108.797,166.000 109.046,166.000 109.400 C 166.000 109.730,166.315 110.006,166.700 110.013 C 167.085 110.020,167.749 110.290,168.176 110.613 C 168.604 110.936,169.279 111.200,169.676 111.200 C 170.074 111.200,170.400 111.450,170.400 111.757 C 170.400 112.063,170.872 112.432,171.448 112.576 C 172.025 112.721,172.758 113.101,173.077 113.420 C 173.396 113.739,173.995 114.000,174.409 114.000 C 174.822 114.000,175.311 114.269,175.495 114.597 C 175.678 114.926,176.305 115.234,176.886 115.282 C 177.468 115.330,177.911 115.528,177.872 115.722 C 177.832 115.916,178.160 116.283,178.600 116.537 C 179.040 116.792,179.492 117.121,179.604 117.268 C 179.716 117.416,180.288 117.657,180.875 117.804 C 181.462 117.952,182.039 118.326,182.159 118.636 C 182.278 118.946,182.568 119.200,182.804 119.200 C 183.296 119.200,185.594 120.758,186.195 121.499 C 186.418 121.774,187.082 122.037,187.671 122.084 C 188.260 122.131,188.654 122.313,188.546 122.488 C 188.438 122.663,188.662 122.926,189.044 123.072 C 189.426 123.219,190.068 123.668,190.469 124.069 C 190.871 124.471,191.560 124.800,192.000 124.800 C 192.444 124.800,192.800 125.067,192.800 125.400 C 192.800 125.730,193.051 126.000,193.357 126.000 C 193.664 126.000,194.018 126.270,194.145 126.600 C 194.271 126.930,194.651 127.200,194.987 127.200 C 195.324 127.200,195.600 127.384,195.600 127.609 C 195.600 127.833,196.095 128.235,196.700 128.500 C 197.305 128.766,197.944 129.212,198.120 129.492 C 198.296 129.771,198.682 130.000,198.977 130.000 C 199.273 130.000,199.618 130.270,199.745 130.600 C 199.871 130.930,200.274 131.200,200.640 131.200 C 201.006 131.200,201.900 131.830,202.626 132.600 C 203.352 133.370,204.119 134.000,204.330 134.000 C 204.542 134.000,204.818 134.270,204.945 134.600 C 205.071 134.930,205.610 135.200,206.141 135.200 C 206.770 135.200,207.180 135.479,207.316 136.000 C 207.467 136.577,207.862 136.800,208.730 136.800 C 210.613 136.800,211.200 136.420,211.200 135.200 C 211.200 134.587,211.453 133.988,211.762 133.870 C 212.072 133.751,212.446 133.102,212.594 132.427 C 212.742 131.752,213.119 131.200,213.432 131.200 C 213.744 131.200,214.000 130.949,214.000 130.643 C 214.000 130.336,214.270 129.982,214.600 129.855 C 214.930 129.729,215.200 129.349,215.200 129.013 C 215.200 128.676,215.470 128.400,215.800 128.400 C 216.130 128.400,216.400 128.142,216.400 127.827 C 216.400 127.512,216.760 127.140,217.200 127.000 C 217.640 126.860,218.000 126.578,218.000 126.373 C 218.000 126.168,218.270 126.000,218.600 126.000 C 218.930 126.000,219.200 125.750,219.200 125.443 C 219.200 125.137,219.693 124.763,220.296 124.612 C 222.825 123.977,222.277 119.200,219.674 119.200 C 219.413 119.200,219.200 118.930,219.200 118.600 C 219.200 118.270,218.949 118.000,218.643 118.000 C 218.336 118.000,217.982 117.730,217.855 117.400 C 217.729 117.070,217.349 116.800,217.013 116.800 C 216.676 116.800,216.400 116.530,216.400 116.200 C 216.400 115.870,216.130 115.600,215.800 115.600 C 215.470 115.600,214.840 115.240,214.400 114.800 C 213.960 114.360,213.439 114.000,213.243 114.000 C 213.046 114.000,212.782 113.730,212.655 113.400 C 212.529 113.070,212.149 112.800,211.813 112.800 C 211.476 112.800,211.200 112.530,211.200 112.200 C 211.200 111.870,210.970 111.600,210.689 111.600 C 210.408 111.600,209.870 111.240,209.493 110.800 C 209.116 110.360,208.446 110.000,208.004 110.000 C 207.556 110.000,207.200 109.734,207.200 109.400 C 207.200 109.070,207.031 108.800,206.825 108.800 C 206.618 108.800,205.853 108.253,205.125 107.585 C 204.396 106.917,203.395 106.268,202.900 106.142 C 202.405 106.016,202.000 105.663,202.000 105.357 C 202.000 105.050,201.640 104.800,201.200 104.800 C 200.756 104.800,200.400 104.533,200.400 104.200 C 200.400 103.870,200.130 103.600,199.800 103.600 C 199.470 103.600,198.840 103.240,198.400 102.800 C 197.960 102.360,197.330 102.000,197.000 102.000 C 196.670 102.000,196.400 101.750,196.400 101.443 C 196.400 101.137,195.950 100.774,195.400 100.636 C 194.850 100.498,194.400 100.208,194.400 99.992 C 194.400 99.777,194.132 99.600,193.803 99.600 C 193.475 99.600,192.982 99.240,192.707 98.800 C 192.432 98.360,192.003 98.000,191.753 98.000 C 191.503 98.000,191.074 97.730,190.800 97.400 C 190.526 97.070,189.874 96.800,189.351 96.800 C 188.772 96.800,188.400 96.565,188.400 96.200 C 188.400 95.870,188.130 95.600,187.800 95.600 C 187.470 95.600,187.200 95.411,187.200 95.180 C 187.200 94.948,186.570 94.496,185.800 94.174 C 185.030 93.852,184.400 93.412,184.400 93.195 C 184.400 92.978,184.080 92.800,183.689 92.800 C 183.298 92.800,182.670 92.440,182.293 92.000 C 181.916 91.560,181.336 91.200,181.004 91.200 C 180.672 91.200,180.400 90.930,180.400 90.600 C 180.400 90.200,180.000 90.000,179.200 90.000 C 178.400 90.000,178.000 89.800,178.000 89.400 C 178.000 89.067,177.644 88.800,177.200 88.800 C 176.760 88.800,176.400 88.544,176.400 88.232 C 176.400 87.919,175.875 87.548,175.233 87.407 C 174.592 87.266,173.967 86.892,173.846 86.576 C 173.724 86.259,173.164 86.000,172.600 86.000 C 172.036 86.000,171.471 85.730,171.345 85.400 C 171.218 85.070,170.858 84.800,170.545 84.800 C 170.231 84.800,169.878 84.546,169.759 84.236 C 169.639 83.926,169.083 83.557,168.523 83.416 C 167.962 83.276,167.242 82.899,166.923 82.580 C 166.604 82.261,165.990 82.000,165.559 82.000 C 165.128 82.000,164.671 81.730,164.545 81.400 C 164.413 81.058,163.817 80.800,163.157 80.800 C 162.402 80.800,162.000 80.594,162.000 80.208 C 162.000 79.882,161.557 79.504,161.016 79.368 C 160.475 79.233,159.823 78.869,159.567 78.561 C 159.311 78.252,158.841 78.000,158.522 78.000 C 158.204 78.000,157.673 77.730,157.343 77.400 C 157.013 77.070,156.415 76.800,156.014 76.800 C 155.613 76.800,155.182 76.530,155.055 76.200 C 154.929 75.870,154.592 75.600,154.307 75.600 C 154.021 75.600,153.116 75.240,152.296 74.800 C 151.475 74.360,150.609 74.000,150.373 74.000 C 150.136 74.000,149.673 73.730,149.343 73.400 C 149.013 73.070,148.210 72.800,147.559 72.800 C 146.885 72.800,146.277 72.546,146.149 72.211 C 146.024 71.887,145.323 71.509,144.589 71.372 C 143.856 71.234,143.159 70.869,143.040 70.561 C 142.921 70.250,142.284 70.000,141.613 70.000 C 140.801 70.000,140.400 69.801,140.400 69.400 C 140.400 68.986,139.985 68.800,139.061 68.800 C 138.297 68.800,137.327 68.457,136.800 68.000 C 136.293 67.560,135.474 67.200,134.982 67.200 C 134.489 67.200,133.982 66.930,133.855 66.600 C 133.698 66.189,133.055 66.000,131.813 66.000 C 130.468 66.000,130.000 65.845,130.000 65.400 C 130.000 64.978,129.574 64.800,128.563 64.800 C 127.732 64.800,126.697 64.463,126.109 64.000 C 125.550 63.560,124.621 63.194,124.046 63.187 C 123.471 63.180,122.651 62.910,122.224 62.587 C 121.796 62.264,120.691 62.000,119.766 62.000 C 118.641 62.000,118.009 61.802,117.855 61.400 C 117.683 60.951,116.966 60.800,115.013 60.800 C 113.055 60.800,112.400 60.661,112.400 60.247 C 112.400 59.531,111.154 59.212,108.333 59.205 C 106.880 59.202,106.007 59.021,105.900 58.700 C 105.635 57.903,79.222 57.757,78.400 58.548 M297.376 58.587 C 296.896 58.951,295.667 59.179,294.150 59.187 C 290.921 59.204,289.200 59.574,289.200 60.250 C 289.200 60.664,288.509 60.800,286.400 60.800 C 284.178 60.800,283.600 60.924,283.600 61.400 C 283.600 61.860,283.092 62.000,281.429 62.000 C 280.150 62.000,279.037 62.220,278.722 62.535 C 278.428 62.829,277.387 63.177,276.408 63.308 C 275.429 63.440,274.422 63.829,274.170 64.173 C 273.885 64.563,273.101 64.800,272.099 64.800 C 271.034 64.800,270.407 65.004,270.255 65.400 C 270.124 65.743,269.527 66.000,268.862 66.000 C 268.222 66.000,267.493 66.248,267.241 66.550 C 266.990 66.853,266.068 67.215,265.192 67.355 C 264.243 67.507,263.600 67.829,263.600 68.153 C 263.600 68.504,262.932 68.771,261.713 68.909 C 260.675 69.026,259.760 69.319,259.680 69.561 C 259.599 69.802,259.017 70.000,258.387 70.000 C 257.756 70.000,257.091 70.265,256.910 70.589 C 256.633 71.084,255.713 71.430,254.300 71.570 C 254.135 71.587,254.000 71.870,254.000 72.200 C 254.000 72.615,253.583 72.800,252.643 72.800 C 251.805 72.800,251.197 73.030,251.055 73.400 C 250.929 73.730,250.382 74.000,249.841 74.000 C 249.300 74.000,248.587 74.270,248.257 74.600 C 247.927 74.930,247.447 75.200,247.190 75.200 C 246.934 75.200,246.246 75.534,245.662 75.942 C 245.078 76.350,244.105 76.803,243.500 76.949 C 242.895 77.096,242.400 77.392,242.400 77.608 C 242.400 77.823,242.106 78.000,241.747 78.000 C 240.958 78.000,238.326 79.551,237.880 80.278 C 237.704 80.565,237.119 80.800,236.580 80.800 C 235.976 80.800,235.600 81.030,235.600 81.400 C 235.600 81.801,235.199 82.000,234.387 82.000 C 233.702 82.000,233.079 82.250,232.954 82.576 C 232.833 82.892,232.196 83.269,231.540 83.413 C 230.883 83.557,230.249 83.928,230.130 84.238 C 230.012 84.547,229.587 84.800,229.186 84.800 C 228.785 84.800,228.219 85.035,227.929 85.322 C 227.638 85.610,227.085 85.964,226.700 86.110 C 226.315 86.256,226.000 86.546,226.000 86.756 C 226.000 86.965,225.460 87.255,224.800 87.400 C 224.140 87.545,223.600 87.919,223.600 88.232 C 223.600 88.563,223.204 88.800,222.649 88.800 C 222.126 88.800,221.474 89.070,221.200 89.400 C 220.926 89.730,220.448 90.000,220.138 90.000 C 219.829 90.000,219.476 90.259,219.354 90.576 C 219.233 90.892,218.608 91.266,217.967 91.407 C 217.325 91.548,216.800 91.919,216.800 92.232 C 216.800 92.544,216.552 92.800,216.249 92.800 C 215.946 92.800,215.474 93.070,215.200 93.400 C 214.926 93.730,214.358 94.000,213.938 94.000 C 213.519 94.000,213.078 94.254,212.959 94.564 C 212.839 94.874,212.299 95.239,211.757 95.375 C 209.889 95.844,209.514 99.200,211.329 99.200 C 211.841 99.200,212.690 99.782,213.372 100.600 C 214.014 101.370,214.759 102.000,215.027 102.000 C 215.295 102.000,215.618 102.270,215.745 102.600 C 215.871 102.930,216.274 103.200,216.640 103.200 C 217.006 103.200,217.900 103.830,218.626 104.600 C 219.352 105.370,220.119 106.000,220.330 106.000 C 220.542 106.000,220.818 106.270,220.945 106.600 C 221.071 106.930,221.368 107.200,221.604 107.200 C 221.840 107.200,222.420 107.560,222.892 108.000 C 223.364 108.440,223.987 108.800,224.275 108.800 C 224.564 108.800,224.800 109.070,224.800 109.400 C 224.800 109.730,225.070 110.000,225.400 110.000 C 225.730 110.000,226.000 110.270,226.000 110.600 C 226.000 111.072,226.556 111.200,228.600 111.200 C 230.644 111.200,231.200 111.072,231.200 110.600 C 231.200 110.199,231.601 110.000,232.413 110.000 C 233.121 110.000,233.721 109.751,233.855 109.400 C 233.982 109.070,234.428 108.800,234.847 108.800 C 235.265 108.800,235.916 108.440,236.293 108.000 C 236.673 107.556,237.473 107.200,238.089 107.200 C 238.810 107.200,239.200 106.989,239.200 106.600 C 239.200 106.199,239.601 106.000,240.413 106.000 C 241.121 106.000,241.721 105.751,241.855 105.400 C 241.982 105.070,242.471 104.798,242.943 104.795 C 244.430 104.785,245.600 104.327,245.600 103.753 C 245.600 103.388,246.075 103.200,247.000 103.200 C 247.978 103.200,248.400 103.019,248.400 102.600 C 248.400 102.183,248.819 102.000,249.771 102.000 C 250.526 102.000,251.413 101.730,251.743 101.400 C 252.073 101.070,252.707 100.800,253.153 100.800 C 254.164 100.800,256.000 99.985,256.000 99.536 C 256.000 99.351,256.733 99.200,257.629 99.200 C 258.543 99.200,259.520 98.937,259.857 98.600 C 260.208 98.249,261.185 98.000,262.209 98.000 C 263.265 98.000,264.087 97.783,264.280 97.455 C 264.485 97.106,265.670 96.835,267.570 96.703 C 269.667 96.557,270.679 96.306,271.014 95.848 C 271.719 94.884,289.773 94.866,290.312 95.829 C 290.506 96.175,291.412 96.558,292.326 96.681 C 293.240 96.803,294.193 97.150,294.443 97.452 C 294.693 97.753,295.307 98.000,295.806 98.000 C 296.306 98.000,296.818 98.270,296.945 98.600 C 297.071 98.930,297.631 99.200,298.187 99.200 C 298.800 99.200,299.200 99.427,299.200 99.773 C 299.200 100.088,299.560 100.460,300.000 100.600 C 300.440 100.740,300.800 101.112,300.800 101.427 C 300.800 101.742,301.070 102.000,301.400 102.000 C 301.730 102.000,302.000 102.270,302.000 102.600 C 302.000 102.930,302.270 103.200,302.600 103.200 C 302.930 103.200,303.200 103.470,303.200 103.800 C 303.200 104.130,303.560 104.760,304.000 105.200 C 304.440 105.640,304.800 106.270,304.800 106.600 C 304.800 106.930,305.070 107.200,305.400 107.200 C 305.811 107.200,306.000 107.612,306.000 108.511 C 306.000 109.232,306.243 110.177,306.541 110.611 C 306.838 111.045,307.199 112.556,307.342 113.970 C 307.485 115.383,307.872 116.837,308.201 117.201 C 309.024 118.110,309.071 124.800,308.254 124.800 C 307.642 124.800,307.200 127.243,307.200 130.622 C 307.200 131.881,307.011 132.796,306.731 132.890 C 306.467 132.978,306.183 134.142,306.081 135.555 C 305.963 137.178,305.705 138.138,305.350 138.275 C 305.009 138.405,304.800 139.100,304.800 140.099 C 304.800 141.101,304.563 141.885,304.173 142.170 C 303.829 142.422,303.446 143.384,303.322 144.308 C 303.198 145.232,302.850 146.193,302.548 146.443 C 302.247 146.693,302.000 147.304,302.000 147.800 C 302.000 148.296,301.730 148.926,301.400 149.200 C 301.055 149.486,300.800 150.358,300.800 151.249 C 300.800 152.308,300.623 152.800,300.243 152.800 C 299.631 152.800,299.200 153.641,299.200 154.833 C 299.200 155.255,298.930 155.600,298.600 155.600 C 298.205 155.600,298.000 155.995,298.000 156.757 C 298.000 157.417,297.742 158.013,297.400 158.145 C 297.049 158.279,296.800 158.879,296.800 159.587 C 296.800 160.355,296.596 160.800,296.245 160.800 C 295.926 160.800,295.577 161.398,295.426 162.200 C 295.269 163.038,294.930 163.600,294.582 163.600 C 294.202 163.600,294.000 164.017,294.000 164.800 C 294.000 165.600,293.800 166.000,293.400 166.000 C 293.024 166.000,292.800 166.380,292.800 167.020 C 292.800 167.644,292.257 168.599,291.400 169.481 C 290.607 170.297,290.000 171.330,290.000 171.861 C 290.000 172.429,289.763 172.800,289.400 172.800 C 289.000 172.800,288.800 173.200,288.800 174.000 C 288.800 174.775,288.597 175.200,288.227 175.200 C 287.912 175.200,287.545 175.543,287.412 175.963 C 287.279 176.383,286.906 176.827,286.585 176.950 C 286.263 177.074,286.000 177.611,286.000 178.145 C 286.000 178.678,285.730 179.218,285.400 179.345 C 285.070 179.471,284.800 179.851,284.800 180.187 C 284.800 180.524,284.622 180.800,284.405 180.800 C 284.188 180.800,283.748 181.430,283.426 182.200 C 283.104 182.970,282.652 183.600,282.420 183.600 C 282.189 183.600,282.000 183.848,282.000 184.151 C 282.000 184.454,281.730 184.926,281.400 185.200 C 281.070 185.474,280.800 185.958,280.800 186.276 C 280.800 186.594,280.170 187.448,279.400 188.174 C 278.630 188.900,278.000 189.794,278.000 190.160 C 278.000 190.526,277.730 190.929,277.400 191.055 C 277.070 191.182,276.800 191.626,276.800 192.043 C 276.800 192.459,276.530 192.800,276.200 192.800 C 275.870 192.800,275.600 193.061,275.600 193.380 C 275.600 193.699,275.375 194.104,275.100 194.280 C 274.438 194.704,272.800 197.056,272.800 197.584 C 272.800 197.813,272.530 198.000,272.200 198.000 C 271.870 198.000,271.600 198.147,271.600 198.327 C 271.600 198.507,270.970 199.362,270.200 200.227 C 269.430 201.092,268.800 202.115,268.800 202.500 C 268.800 202.885,268.542 203.200,268.227 203.200 C 267.912 203.200,267.540 203.560,267.400 204.000 C 267.260 204.440,266.888 204.800,266.573 204.800 C 266.258 204.800,266.000 205.051,266.000 205.357 C 266.000 205.664,265.730 206.018,265.400 206.145 C 264.989 206.302,264.800 206.945,264.800 208.187 C 264.800 209.532,264.955 210.000,265.400 210.000 C 265.730 210.000,266.000 210.270,266.000 210.600 C 266.000 211.019,266.422 211.200,267.400 211.200 C 268.244 211.200,268.807 211.398,268.817 211.700 C 268.837 212.281,271.386 214.000,272.228 214.000 C 272.542 214.000,272.800 214.270,272.800 214.600 C 272.800 214.930,273.070 215.200,273.400 215.200 C 273.730 215.200,274.000 215.389,274.000 215.620 C 274.000 215.851,274.630 216.688,275.400 217.481 C 276.170 218.274,276.800 219.255,276.800 219.661 C 276.800 220.068,277.049 220.400,277.353 220.400 C 277.658 220.400,278.001 220.760,278.116 221.200 C 278.365 222.152,280.400 222.354,280.400 221.427 C 280.400 221.112,280.760 220.740,281.200 220.600 C 281.640 220.460,282.000 220.088,282.000 219.773 C 282.000 219.458,282.270 219.200,282.600 219.200 C 282.930 219.200,283.200 218.949,283.200 218.643 C 283.200 218.336,283.470 217.982,283.800 217.855 C 284.130 217.729,284.400 217.369,284.400 217.055 C 284.400 216.742,284.673 216.381,285.006 216.253 C 285.339 216.125,285.785 215.566,285.996 215.010 C 286.207 214.455,286.565 214.000,286.790 214.000 C 287.016 214.000,287.200 213.730,287.200 213.400 C 287.200 213.070,287.458 212.800,287.773 212.800 C 288.088 212.800,288.460 212.440,288.600 212.000 C 288.740 211.560,289.112 211.200,289.427 211.200 C 289.742 211.200,290.000 210.949,290.000 210.643 C 290.000 210.336,290.270 209.982,290.600 209.855 C 290.930 209.729,291.200 209.349,291.200 209.013 C 291.200 208.676,291.470 208.400,291.800 208.400 C 292.130 208.400,292.400 208.130,292.400 207.800 C 292.400 207.470,292.760 206.840,293.200 206.400 C 293.640 205.960,294.000 205.439,294.000 205.243 C 294.000 205.046,294.270 204.782,294.600 204.655 C 294.930 204.529,295.200 204.149,295.200 203.813 C 295.200 203.476,295.470 203.200,295.800 203.200 C 296.130 203.200,296.400 202.970,296.400 202.689 C 296.400 202.408,296.760 201.870,297.200 201.493 C 297.640 201.116,298.000 200.446,298.000 200.004 C 298.000 199.556,298.266 199.200,298.600 199.200 C 298.930 199.200,299.200 198.930,299.200 198.600 C 299.200 198.270,299.458 198.000,299.773 198.000 C 300.088 198.000,300.455 197.657,300.588 197.237 C 300.721 196.817,301.094 196.373,301.415 196.250 C 301.737 196.126,302.000 195.654,302.000 195.200 C 302.000 194.746,302.270 194.271,302.600 194.145 C 302.930 194.018,303.200 193.574,303.200 193.157 C 303.200 192.741,303.470 192.400,303.800 192.400 C 304.130 192.400,304.400 192.130,304.400 191.800 C 304.400 191.470,304.675 191.200,305.010 191.200 C 305.365 191.200,305.718 190.709,305.855 190.026 C 305.984 189.380,306.340 188.755,306.645 188.638 C 306.950 188.521,307.200 188.149,307.200 187.813 C 307.200 187.476,307.427 187.200,307.705 187.200 C 308.198 187.200,308.649 186.536,309.672 184.300 C 309.949 183.695,310.406 183.200,310.688 183.200 C 310.969 183.200,311.200 182.922,311.200 182.583 C 311.200 182.244,311.560 181.580,312.000 181.108 C 312.440 180.636,312.800 180.013,312.800 179.725 C 312.800 179.436,313.070 179.200,313.400 179.200 C 313.730 179.200,314.000 178.859,314.000 178.443 C 314.000 178.026,314.270 177.582,314.600 177.455 C 314.930 177.329,315.200 176.769,315.200 176.213 C 315.200 175.635,315.429 175.200,315.734 175.200 C 316.028 175.200,316.703 174.307,317.234 173.216 C 317.765 172.124,318.425 171.224,318.700 171.216 C 318.985 171.207,319.200 170.685,319.200 170.000 C 319.200 169.225,319.403 168.800,319.773 168.800 C 320.088 168.800,320.472 168.403,320.626 167.919 C 320.780 167.434,321.152 166.791,321.453 166.490 C 321.754 166.189,322.000 165.596,322.000 165.171 C 322.000 164.747,322.270 164.400,322.600 164.400 C 323.000 164.400,323.200 164.000,323.200 163.200 C 323.200 162.407,323.401 162.000,323.792 162.000 C 324.118 162.000,324.498 161.550,324.636 161.000 C 324.774 160.450,325.030 160.000,325.204 160.000 C 325.379 160.000,325.710 159.460,325.940 158.800 C 326.170 158.140,326.548 157.600,326.779 157.600 C 327.011 157.600,327.200 157.060,327.200 156.400 C 327.200 155.617,327.402 155.200,327.782 155.200 C 328.130 155.200,328.469 154.638,328.626 153.800 C 328.777 152.998,329.126 152.400,329.445 152.400 C 329.790 152.400,330.000 151.964,330.000 151.243 C 330.000 150.583,330.258 149.987,330.600 149.855 C 330.951 149.721,331.200 149.121,331.200 148.413 C 331.200 147.618,331.401 147.200,331.782 147.200 C 332.128 147.200,332.468 146.644,332.621 145.828 C 332.763 145.073,333.131 144.359,333.439 144.240 C 333.748 144.122,334.000 143.564,334.000 143.000 C 334.000 142.436,334.270 141.871,334.600 141.745 C 334.931 141.618,335.200 141.024,335.200 140.418 C 335.200 139.816,335.560 138.907,336.000 138.400 C 336.440 137.893,336.800 136.984,336.800 136.382 C 336.800 135.776,337.069 135.182,337.400 135.055 C 337.744 134.923,338.000 134.326,338.000 133.655 C 338.000 132.985,338.256 132.387,338.600 132.255 C 339.011 132.098,339.200 131.455,339.200 130.213 C 339.200 128.936,339.364 128.400,339.753 128.400 C 340.360 128.400,340.786 127.213,340.795 125.500 C 340.798 124.791,341.013 124.400,341.400 124.400 C 341.853 124.400,342.000 123.911,342.000 122.400 C 342.000 120.889,342.147 120.400,342.600 120.400 C 343.072 120.400,343.200 119.844,343.200 117.800 C 343.200 115.756,343.328 115.200,343.800 115.200 C 344.130 115.200,344.406 115.155,344.414 115.100 C 344.422 115.045,344.527 113.920,344.646 112.600 C 344.766 111.280,345.119 109.633,345.432 108.940 C 346.257 107.109,346.269 83.921,345.445 83.237 C 345.139 82.983,344.766 81.791,344.616 80.588 C 344.428 79.086,344.163 78.400,343.771 78.400 C 343.402 78.400,343.200 77.971,343.200 77.187 C 343.200 76.479,342.951 75.879,342.600 75.745 C 342.270 75.618,342.000 75.087,342.000 74.564 C 342.000 74.020,341.402 72.999,340.600 72.173 C 339.830 71.380,339.200 70.601,339.200 70.442 C 339.200 69.875,335.186 66.000,334.599 66.000 C 334.269 66.000,334.000 65.730,334.000 65.400 C 334.000 65.067,333.644 64.800,333.200 64.800 C 332.760 64.800,332.400 64.544,332.400 64.232 C 332.400 63.919,331.875 63.548,331.233 63.407 C 330.592 63.266,329.967 62.892,329.846 62.576 C 329.721 62.250,329.098 62.000,328.413 62.000 C 327.601 62.000,327.200 61.801,327.200 61.400 C 327.200 60.960,326.743 60.800,325.489 60.800 C 324.328 60.800,323.577 60.565,323.154 60.071 C 322.706 59.548,321.876 59.316,320.214 59.248 C 318.841 59.193,317.662 58.919,317.320 58.577 C 316.462 57.719,298.512 57.728,297.376 58.587 M169.700 126.963 C 169.205 127.485,168.800 128.112,168.800 128.356 C 168.800 128.600,168.542 128.800,168.228 128.800 C 167.386 128.800,164.837 130.519,164.817 131.100 C 164.808 131.375,164.530 131.600,164.200 131.600 C 163.870 131.600,163.600 131.870,163.600 132.200 C 163.600 132.533,163.244 132.800,162.800 132.800 C 162.360 132.800,162.000 132.973,162.000 133.185 C 162.000 134.779,158.657 136.833,156.250 136.718 C 154.706 136.644,153.831 136.434,153.883 136.150 C 153.998 135.530,151.766 135.225,148.304 135.389 C 144.755 135.556,143.770 135.772,143.900 136.353 C 143.964 136.639,143.225 136.800,141.843 136.800 C 140.294 136.800,139.621 136.969,139.455 137.400 C 139.329 137.730,138.764 138.000,138.200 138.000 C 137.636 138.000,137.078 138.252,136.960 138.561 C 136.841 138.869,136.127 139.237,135.372 139.379 C 134.556 139.532,134.000 139.872,134.000 140.218 C 134.000 140.538,133.730 140.800,133.400 140.800 C 133.070 140.800,132.800 141.070,132.800 141.400 C 132.800 141.730,132.600 142.000,132.356 142.000 C 131.742 142.000,130.015 143.690,130.007 144.300 C 130.003 144.575,129.730 144.800,129.400 144.800 C 129.070 144.800,128.800 145.051,128.800 145.357 C 128.800 145.664,128.547 146.012,128.238 146.130 C 127.928 146.249,127.554 146.898,127.406 147.573 C 127.258 148.248,126.881 148.800,126.568 148.800 C 126.185 148.800,126.000 149.257,126.000 150.200 C 126.000 151.178,125.819 151.600,125.400 151.600 C 124.887 151.600,124.800 152.728,124.800 159.351 C 124.800 165.753,124.904 167.189,125.400 167.600 C 125.730 167.874,126.000 168.603,126.000 169.220 C 126.000 169.838,126.235 170.581,126.522 170.871 C 126.810 171.162,127.164 171.715,127.310 172.100 C 127.456 172.485,127.743 172.800,127.948 172.800 C 128.154 172.800,128.510 173.340,128.740 174.000 C 128.970 174.660,129.348 175.200,129.579 175.200 C 129.811 175.200,130.000 175.449,130.000 175.753 C 130.000 176.058,130.360 176.401,130.800 176.516 C 131.240 176.631,131.600 177.012,131.600 177.363 C 131.600 177.713,131.851 178.000,132.157 178.000 C 132.464 178.000,132.818 178.270,132.945 178.600 C 133.071 178.930,133.631 179.200,134.187 179.200 C 134.821 179.200,135.200 179.425,135.200 179.800 C 135.200 180.130,135.442 180.400,135.739 180.400 C 136.035 180.400,136.693 180.760,137.200 181.200 C 137.727 181.657,138.697 182.000,139.461 182.000 C 140.385 182.000,140.800 182.186,140.800 182.600 C 140.800 183.114,141.979 183.200,149.013 183.200 C 155.944 183.200,157.261 183.106,157.455 182.600 C 157.583 182.266,158.178 182.000,158.794 182.000 C 159.403 182.000,160.117 181.742,160.379 181.426 C 160.641 181.110,161.383 180.736,162.028 180.594 C 162.672 180.452,163.200 180.081,163.200 179.768 C 163.200 179.456,163.470 179.200,163.800 179.200 C 164.130 179.200,164.724 178.885,165.120 178.500 C 165.516 178.115,166.401 177.380,167.085 176.867 C 167.770 176.354,168.439 175.499,168.573 174.967 C 168.706 174.435,169.082 174.000,169.408 174.000 C 169.733 174.000,170.000 173.640,170.000 173.200 C 170.000 172.756,170.267 172.400,170.600 172.400 C 171.000 172.400,171.200 172.000,171.200 171.200 C 171.200 170.445,171.405 170.000,171.753 170.000 C 172.337 170.000,172.785 168.825,172.795 167.271 C 172.798 166.761,173.070 166.073,173.400 165.743 C 174.240 164.903,174.240 155.070,173.400 153.600 C 172.650 152.288,172.650 151.200,173.400 151.200 C 173.730 151.200,174.000 150.930,174.000 150.600 C 174.000 150.270,174.270 150.000,174.600 150.000 C 174.930 150.000,175.200 149.730,175.200 149.400 C 175.200 149.070,175.470 148.800,175.800 148.800 C 176.130 148.800,176.729 148.471,177.131 148.069 C 177.532 147.668,178.162 147.223,178.531 147.082 C 178.899 146.941,179.200 146.639,179.200 146.413 C 179.200 146.186,179.470 146.000,179.800 146.000 C 180.130 146.000,180.400 145.713,180.400 145.363 C 180.400 145.012,180.760 144.631,181.200 144.516 C 181.640 144.401,182.000 144.058,182.000 143.753 C 182.000 143.449,182.270 143.200,182.600 143.200 C 182.930 143.200,183.200 142.930,183.200 142.600 C 183.200 142.270,183.532 142.000,183.938 142.000 C 184.344 142.000,185.002 141.640,185.400 141.200 C 185.798 140.760,186.366 140.400,186.662 140.400 C 186.958 140.400,187.200 140.130,187.200 139.800 C 187.200 139.470,187.451 139.200,187.757 139.200 C 188.386 139.200,188.800 138.354,188.800 137.066 C 188.800 136.070,186.790 134.000,185.823 134.000 C 185.467 134.000,185.071 133.730,184.945 133.400 C 184.818 133.070,184.374 132.800,183.957 132.800 C 183.541 132.800,183.200 132.573,183.200 132.295 C 183.200 131.802,182.536 131.351,180.300 130.328 C 179.695 130.051,179.200 129.594,179.200 129.312 C 179.200 129.010,178.709 128.800,178.000 128.800 C 177.200 128.800,176.800 128.600,176.800 128.200 C 176.800 127.870,176.570 127.600,176.289 127.600 C 176.008 127.600,175.470 127.240,175.093 126.800 C 174.062 125.597,170.905 125.692,169.700 126.963 M232.500 127.630 C 232.005 127.819,231.600 128.160,231.600 128.387 C 231.600 128.614,230.970 128.800,230.200 128.800 C 229.222 128.800,228.800 128.981,228.800 129.400 C 228.800 129.737,228.443 130.000,227.984 130.000 C 226.980 130.000,224.800 131.558,224.800 132.275 C 224.800 132.564,224.530 132.800,224.200 132.800 C 223.525 132.800,222.000 134.187,222.000 134.800 C 222.000 135.020,221.730 135.200,221.400 135.200 C 221.067 135.200,220.800 135.556,220.800 136.000 C 220.800 136.452,220.533 136.800,220.187 136.800 C 219.851 136.800,219.456 137.115,219.310 137.500 C 219.164 137.885,218.810 138.438,218.522 138.729 C 218.235 139.019,218.000 139.585,218.000 139.986 C 218.000 140.387,217.730 140.818,217.400 140.945 C 216.999 141.098,216.800 141.729,216.800 142.843 C 216.800 143.971,216.573 144.678,216.100 145.023 C 214.850 145.936,214.985 156.400,216.247 156.400 C 216.644 156.400,216.800 156.964,216.800 158.400 C 216.800 159.911,216.947 160.400,217.400 160.400 C 217.798 160.400,218.000 160.798,218.000 161.580 C 218.000 162.229,218.229 162.904,218.508 163.080 C 218.788 163.256,219.234 163.895,219.500 164.500 C 219.765 165.105,220.167 165.600,220.391 165.600 C 220.616 165.600,220.800 165.808,220.800 166.062 C 220.800 166.527,223.941 169.736,224.500 169.843 C 224.665 169.874,225.070 169.923,225.400 169.950 C 225.730 169.978,226.000 170.270,226.000 170.600 C 226.000 170.933,226.356 171.200,226.800 171.200 C 227.240 171.200,227.600 171.456,227.600 171.768 C 227.600 172.082,228.172 172.462,228.877 172.617 C 229.580 172.771,230.403 173.146,230.706 173.449 C 231.036 173.779,232.111 174.000,233.386 174.000 C 234.909 174.000,235.580 174.171,235.745 174.600 C 235.930 175.083,236.831 175.200,240.359 175.200 C 243.722 175.200,244.883 175.060,245.343 174.600 C 246.864 173.079,251.600 175.076,251.600 177.239 C 251.600 177.437,251.870 177.600,252.200 177.600 C 252.530 177.600,252.800 177.839,252.800 178.130 C 252.800 178.422,253.430 179.186,254.200 179.828 C 254.970 180.470,255.600 181.222,255.600 181.498 C 255.600 181.774,255.870 182.000,256.200 182.000 C 256.530 182.000,256.800 182.270,256.800 182.600 C 256.800 182.930,257.070 183.200,257.400 183.200 C 257.730 183.200,258.000 183.371,258.000 183.579 C 258.000 184.075,259.788 186.000,260.248 186.000 C 260.444 186.000,260.829 186.506,261.103 187.125 C 262.390 190.032,265.193 190.485,265.902 187.900 C 266.007 187.515,266.342 187.200,266.647 187.200 C 266.951 187.200,267.200 186.924,267.200 186.587 C 267.200 186.251,267.459 185.876,267.776 185.754 C 268.092 185.633,268.466 185.008,268.607 184.367 C 268.748 183.725,269.119 183.200,269.432 183.200 C 269.744 183.200,270.000 182.949,270.000 182.643 C 270.000 182.336,270.270 181.982,270.600 181.855 C 270.930 181.729,271.200 181.337,271.200 180.984 C 271.200 180.631,271.425 180.106,271.700 179.816 C 276.019 175.266,276.323 172.523,272.900 168.975 C 272.625 168.690,272.400 168.264,272.400 168.029 C 272.400 167.793,272.130 167.600,271.800 167.600 C 271.470 167.600,271.200 167.415,271.200 167.188 C 271.200 166.962,270.030 165.624,268.600 164.215 C 267.170 162.806,266.000 161.461,266.000 161.226 C 266.000 160.992,265.730 160.800,265.400 160.800 C 265.070 160.800,264.800 160.614,264.800 160.387 C 264.800 160.160,264.395 159.811,263.900 159.612 C 263.280 159.363,263.205 159.243,263.657 159.225 C 264.506 159.193,264.800 158.378,264.800 156.056 C 264.800 154.979,265.074 153.787,265.442 153.261 C 266.129 152.281,266.022 148.807,265.276 147.874 C 265.068 147.613,264.814 146.338,264.711 145.040 C 264.587 143.472,264.302 142.518,263.862 142.196 C 263.498 141.930,263.200 141.256,263.200 140.699 C 263.200 140.141,262.930 139.582,262.600 139.455 C 262.270 139.329,262.000 138.868,262.000 138.432 C 262.000 137.995,261.370 137.027,260.600 136.279 C 259.830 135.531,259.200 134.712,259.200 134.460 C 259.200 134.207,258.930 134.000,258.600 134.000 C 258.270 134.000,258.000 133.730,258.000 133.400 C 258.000 133.067,257.644 132.800,257.200 132.800 C 256.756 132.800,256.400 132.533,256.400 132.200 C 256.400 131.870,256.158 131.600,255.862 131.600 C 255.566 131.600,254.998 131.240,254.600 130.800 C 254.202 130.360,253.621 130.000,253.309 130.000 C 252.998 130.000,252.473 129.730,252.143 129.400 C 251.810 129.067,250.832 128.800,249.948 128.800 C 249.042 128.800,248.454 128.636,248.588 128.420 C 249.299 127.268,235.249 126.578,232.500 127.630 M118.145 177.400 C 118.018 177.730,117.664 178.000,117.357 178.000 C 117.051 178.000,116.800 178.195,116.800 178.433 C 116.800 178.671,115.900 179.771,114.800 180.876 C 113.700 181.982,112.800 183.137,112.800 183.443 C 112.800 183.750,112.650 184.000,112.468 184.000 C 112.285 184.000,111.894 184.450,111.600 185.000 C 111.306 185.550,110.825 186.000,110.532 186.000 C 110.240 186.000,110.000 186.360,110.000 186.800 C 110.000 187.244,109.733 187.600,109.400 187.600 C 109.070 187.600,108.800 187.870,108.800 188.200 C 108.800 188.530,108.530 188.800,108.200 188.800 C 107.870 188.800,107.600 189.076,107.600 189.413 C 107.600 189.749,107.343 190.124,107.028 190.245 C 106.713 190.365,106.273 190.990,106.049 191.632 C 105.825 192.274,105.452 192.800,105.221 192.800 C 104.989 192.800,104.800 193.070,104.800 193.400 C 104.800 193.730,104.551 194.000,104.247 194.000 C 103.942 194.000,103.599 194.360,103.484 194.800 C 103.369 195.240,102.988 195.600,102.637 195.600 C 102.287 195.600,102.000 195.848,102.000 196.151 C 102.000 196.454,101.730 196.926,101.400 197.200 C 101.070 197.474,100.800 198.036,100.800 198.449 C 100.800 198.862,100.542 199.200,100.227 199.200 C 99.912 199.200,99.540 199.560,99.400 200.000 C 99.260 200.440,98.888 200.800,98.573 200.800 C 98.258 200.800,98.000 201.076,98.000 201.413 C 98.000 201.749,97.730 202.129,97.400 202.255 C 97.070 202.382,96.800 202.872,96.800 203.345 C 96.800 203.838,96.203 204.702,95.400 205.372 C 94.630 206.014,94.000 206.759,94.000 207.027 C 94.000 207.295,93.730 207.618,93.400 207.745 C 93.070 207.871,92.800 208.431,92.800 208.987 C 92.800 209.600,92.573 210.000,92.227 210.000 C 91.912 210.000,91.540 210.360,91.400 210.800 C 91.260 211.240,90.974 211.600,90.763 211.600 C 90.553 211.600,90.197 212.005,89.973 212.500 C 89.419 213.724,88.702 214.911,88.093 215.615 C 86.505 217.446,86.000 218.176,86.000 218.641 C 86.000 218.927,85.775 219.304,85.500 219.480 C 84.935 219.842,83.664 221.844,83.329 222.900 C 83.207 223.285,82.858 223.600,82.553 223.600 C 82.228 223.600,82.000 224.017,82.000 224.613 C 82.000 225.169,81.730 225.729,81.400 225.855 C 81.070 225.982,80.800 226.426,80.800 226.843 C 80.800 227.259,80.544 227.600,80.232 227.600 C 79.919 227.600,79.548 228.125,79.407 228.767 C 79.266 229.408,78.892 230.033,78.576 230.154 C 78.259 230.276,78.000 230.631,78.000 230.945 C 78.000 231.258,77.730 231.618,77.400 231.745 C 77.070 231.871,76.800 232.431,76.800 232.987 C 76.800 233.607,76.574 234.000,76.218 234.000 C 75.870 234.000,75.531 234.562,75.374 235.400 C 75.223 236.202,74.874 236.800,74.555 236.800 C 74.250 236.800,74.000 237.087,74.000 237.438 C 74.000 238.217,72.776 240.487,72.131 240.902 C 71.873 241.069,71.547 241.729,71.407 242.369 C 71.266 243.009,70.892 243.633,70.576 243.754 C 70.259 243.876,70.000 244.411,70.000 244.945 C 70.000 245.478,69.730 246.018,69.400 246.145 C 69.049 246.279,68.800 246.879,68.800 247.587 C 68.800 248.382,68.599 248.800,68.218 248.800 C 67.870 248.800,67.531 249.362,67.374 250.200 C 67.223 251.002,66.874 251.600,66.555 251.600 C 66.210 251.600,66.000 252.036,66.000 252.757 C 66.000 253.417,65.742 254.013,65.400 254.145 C 65.049 254.279,64.800 254.879,64.800 255.587 C 64.800 256.399,64.601 256.800,64.200 256.800 C 63.870 256.800,63.600 257.118,63.600 257.506 C 63.600 257.894,63.240 258.884,62.800 259.704 C 62.360 260.525,62.000 261.653,62.000 262.211 C 62.000 262.769,61.730 263.329,61.400 263.455 C 61.061 263.585,60.800 264.181,60.800 264.823 C 60.800 265.448,60.524 266.115,60.187 266.303 C 59.850 266.492,59.463 267.356,59.327 268.223 C 59.190 269.090,58.836 269.944,58.539 270.120 C 58.215 270.312,58.000 271.153,58.000 272.232 C 58.000 273.457,57.810 274.098,57.400 274.255 C 57.004 274.407,56.800 275.034,56.800 276.099 C 56.800 277.138,56.565 277.884,56.138 278.196 C 55.707 278.511,55.411 279.466,55.289 280.932 C 55.186 282.170,54.854 283.389,54.551 283.641 C 54.182 283.947,54.000 284.993,54.000 286.800 C 54.000 288.725,53.826 289.647,53.394 290.005 C 52.574 290.686,52.677 315.465,53.500 315.300 C 53.775 315.245,53.979 315.335,53.953 315.500 C 53.740 316.847,54.105 319.648,54.551 320.094 C 54.854 320.397,55.229 321.220,55.383 321.923 C 55.538 322.628,55.918 323.200,56.232 323.200 C 56.592 323.200,56.800 323.624,56.800 324.357 C 56.800 325.017,57.058 325.613,57.400 325.745 C 57.730 325.871,58.000 326.251,58.000 326.587 C 58.000 326.924,58.270 327.200,58.600 327.200 C 58.930 327.200,59.200 327.410,59.200 327.666 C 59.200 327.923,59.454 328.418,59.765 328.766 C 62.065 331.345,63.660 332.800,64.184 332.800 C 64.523 332.800,64.800 333.070,64.800 333.400 C 64.800 333.730,65.051 334.000,65.357 334.000 C 65.664 334.000,66.018 334.270,66.145 334.600 C 66.279 334.951,66.879 335.200,67.587 335.200 C 68.357 335.200,68.800 335.403,68.800 335.757 C 68.800 336.369,69.641 336.800,70.833 336.800 C 71.255 336.800,71.600 337.070,71.600 337.400 C 71.600 337.853,72.089 338.000,73.600 338.000 C 74.987 338.000,75.569 338.153,75.500 338.500 C 75.430 338.850,76.180 339.034,78.000 339.114 C 79.892 339.197,80.741 339.415,81.117 339.914 C 82.123 341.249,101.600 341.110,101.600 339.768 C 101.600 339.318,102.378 339.200,105.357 339.200 C 108.328 339.200,109.163 339.074,109.345 338.600 C 109.515 338.156,110.218 338.000,112.043 338.000 C 113.682 338.000,114.661 337.812,114.956 337.440 C 115.200 337.131,116.386 336.781,117.590 336.660 C 118.896 336.530,119.964 336.190,120.234 335.821 C 120.516 335.435,121.308 335.200,122.324 335.200 C 123.335 335.200,124.084 334.979,124.284 334.622 C 124.472 334.286,125.336 334.001,126.347 333.941 C 127.321 333.884,128.175 333.610,128.286 333.319 C 128.396 333.034,128.976 332.800,129.576 332.800 C 130.176 332.800,130.802 332.665,130.967 332.500 C 131.132 332.335,131.477 332.192,131.733 332.182 C 131.990 332.172,132.155 331.947,132.100 331.682 C 132.035 331.370,132.564 331.200,133.600 331.200 C 134.756 331.200,135.200 331.033,135.200 330.600 C 135.200 330.200,135.600 330.000,136.401 330.000 C 137.062 330.000,138.275 329.640,139.096 329.200 C 139.916 328.760,140.821 328.400,141.107 328.400 C 141.392 328.400,141.729 328.130,141.855 327.800 C 141.984 327.465,142.578 327.200,143.200 327.200 C 143.822 327.200,144.416 326.935,144.545 326.600 C 144.676 326.257,145.273 326.000,145.938 326.000 C 146.578 326.000,147.326 325.730,147.600 325.400 C 147.874 325.070,148.436 324.800,148.849 324.800 C 149.262 324.800,149.960 324.440,150.400 324.000 C 150.840 323.560,151.365 323.200,151.568 323.200 C 151.770 323.200,152.445 322.947,153.068 322.638 C 153.690 322.329,155.100 321.665,156.200 321.163 C 157.300 320.660,158.438 320.013,158.729 319.725 C 159.019 319.436,159.492 319.200,159.780 319.200 C 160.067 319.200,160.526 318.930,160.800 318.600 C 161.074 318.270,161.726 318.000,162.249 318.000 C 162.794 318.000,163.200 317.763,163.200 317.445 C 163.200 317.126,163.798 316.777,164.600 316.626 C 165.438 316.469,166.000 316.130,166.000 315.782 C 166.000 315.402,166.417 315.200,167.200 315.200 C 168.000 315.200,168.400 315.000,168.400 314.600 C 168.400 314.270,168.747 314.000,169.171 314.000 C 169.596 314.000,170.213 313.730,170.543 313.400 C 170.873 313.070,171.334 312.800,171.568 312.800 C 171.802 312.800,172.218 312.440,172.493 312.000 C 172.796 311.514,173.426 311.200,174.096 311.200 C 174.708 311.200,175.204 310.977,175.208 310.700 C 175.213 310.425,176.113 309.792,177.208 309.292 C 178.304 308.793,179.200 308.118,179.200 307.792 C 179.200 307.399,179.608 307.200,180.413 307.200 C 181.121 307.200,181.721 306.951,181.855 306.600 C 181.982 306.270,182.317 306.000,182.600 306.000 C 182.883 306.000,183.212 305.747,183.330 305.438 C 183.449 305.128,184.098 304.754,184.773 304.606 C 185.448 304.458,186.000 304.081,186.000 303.768 C 186.000 303.456,186.283 303.200,186.629 303.200 C 188.643 303.200,189.150 299.828,187.200 299.400 C 186.540 299.255,186.000 298.881,186.000 298.568 C 186.000 298.256,185.724 298.000,185.387 298.000 C 185.051 298.000,184.671 297.730,184.545 297.400 C 184.418 297.070,184.064 296.800,183.757 296.800 C 183.451 296.800,183.200 296.616,183.200 296.391 C 183.200 296.167,182.705 295.765,182.100 295.500 C 181.495 295.234,180.856 294.788,180.680 294.508 C 180.504 294.229,180.099 294.000,179.780 294.000 C 179.461 294.000,179.200 293.730,179.200 293.400 C 179.200 293.070,179.031 292.800,178.825 292.800 C 178.618 292.800,177.853 292.253,177.125 291.585 C 176.396 290.917,175.395 290.268,174.900 290.142 C 174.405 290.016,174.000 289.663,174.000 289.357 C 174.000 289.050,173.640 288.800,173.200 288.800 C 172.760 288.800,172.400 288.551,172.400 288.247 C 172.400 287.031,168.703 286.837,167.707 288.000 C 167.327 288.444,166.527 288.800,165.911 288.800 C 165.190 288.800,164.800 289.011,164.800 289.400 C 164.800 289.801,164.399 290.000,163.587 290.000 C 162.879 290.000,162.279 290.249,162.145 290.600 C 162.018 290.930,161.572 291.200,161.153 291.200 C 160.735 291.200,160.084 291.560,159.707 292.000 C 159.330 292.440,158.541 292.800,157.954 292.800 C 157.366 292.800,156.782 293.070,156.655 293.400 C 156.526 293.736,155.931 294.000,155.302 294.000 C 154.684 294.000,153.823 294.247,153.389 294.549 C 152.955 294.851,152.015 295.225,151.300 295.381 C 150.576 295.538,150.000 295.915,150.000 296.232 C 150.000 296.625,149.522 296.800,148.443 296.800 C 147.428 296.800,146.805 297.009,146.655 297.400 C 146.513 297.771,145.905 298.000,145.062 298.000 C 144.312 298.000,143.493 298.247,143.243 298.549 C 142.992 298.850,141.946 299.192,140.918 299.308 C 139.872 299.426,138.842 299.801,138.580 300.159 C 138.266 300.589,137.495 300.800,136.243 300.800 C 134.951 300.800,134.304 300.985,134.145 301.400 C 133.971 301.852,133.242 302.000,131.186 302.000 C 129.260 302.000,128.276 302.182,127.840 302.617 C 126.915 303.543,109.090 303.547,108.165 302.622 C 107.813 302.270,106.859 302.000,105.971 302.000 C 104.841 302.000,104.400 301.832,104.400 301.400 C 104.400 301.005,104.005 300.800,103.243 300.800 C 102.606 300.800,101.988 300.547,101.870 300.238 C 101.751 299.928,101.102 299.554,100.427 299.406 C 99.752 299.258,99.200 298.881,99.200 298.568 C 99.200 298.256,98.930 298.000,98.600 298.000 C 98.270 298.000,98.000 297.730,98.000 297.400 C 98.000 297.070,97.828 296.800,97.618 296.800 C 97.044 296.800,95.298 294.938,95.004 294.013 C 94.862 293.566,94.578 293.200,94.373 293.200 C 94.168 293.200,94.000 292.859,94.000 292.443 C 94.000 292.026,93.755 291.592,93.457 291.477 C 93.158 291.362,92.795 290.526,92.649 289.619 C 92.504 288.712,92.119 287.867,91.793 287.742 C 91.354 287.574,91.200 286.846,91.200 284.945 C 91.200 283.029,91.047 282.316,90.600 282.145 C 90.123 281.962,90.000 281.110,90.000 278.000 C 90.000 274.890,90.123 274.038,90.600 273.855 C 91.073 273.674,91.200 272.849,91.200 269.957 C 91.200 267.103,91.338 266.187,91.821 265.834 C 92.190 265.564,92.530 264.496,92.660 263.190 C 92.781 261.986,93.131 260.800,93.440 260.556 C 93.776 260.289,94.000 259.369,94.000 258.256 C 94.000 256.873,94.153 256.400,94.600 256.400 C 95.033 256.400,95.200 255.956,95.200 254.800 C 95.200 253.733,95.467 252.933,96.000 252.400 C 96.440 251.960,96.800 251.172,96.800 250.649 C 96.800 250.126,97.070 249.474,97.400 249.200 C 97.730 248.926,98.000 248.094,98.000 247.351 C 98.000 246.417,98.185 246.000,98.600 246.000 C 99.019 246.000,99.200 245.578,99.200 244.600 C 99.200 243.670,99.387 243.200,99.757 243.200 C 100.369 243.200,100.800 242.359,100.800 241.167 C 100.800 240.745,101.070 240.400,101.400 240.400 C 101.795 240.400,102.000 240.005,102.000 239.243 C 102.000 238.583,102.258 237.987,102.600 237.855 C 102.951 237.721,103.200 237.121,103.200 236.413 C 103.200 235.593,103.397 235.200,103.810 235.200 C 104.172 235.200,104.521 234.697,104.667 233.966 C 104.803 233.287,105.158 232.637,105.457 232.523 C 105.756 232.408,106.000 232.051,106.000 231.729 C 106.000 231.406,106.270 230.873,106.600 230.543 C 106.930 230.213,107.200 229.596,107.200 229.171 C 107.200 228.747,107.384 228.400,107.609 228.400 C 107.833 228.400,108.236 227.905,108.504 227.300 C 108.771 226.695,109.217 226.020,109.494 225.800 C 109.771 225.580,110.037 224.918,110.084 224.329 C 110.131 223.740,110.312 223.346,110.486 223.453 C 110.659 223.560,110.977 223.187,111.191 222.624 C 111.405 222.061,111.750 221.600,111.958 221.600 C 112.166 221.600,112.455 221.060,112.600 220.400 C 112.745 219.740,113.119 219.200,113.432 219.200 C 113.744 219.200,114.000 218.924,114.000 218.587 C 114.000 218.251,114.270 217.871,114.600 217.745 C 114.942 217.613,115.200 217.017,115.200 216.357 C 115.200 215.585,115.404 215.200,115.813 215.200 C 116.149 215.200,116.544 214.885,116.690 214.500 C 116.836 214.115,117.190 213.562,117.478 213.271 C 117.765 212.981,118.000 212.396,118.000 211.971 C 118.000 211.547,118.270 211.200,118.600 211.200 C 118.930 211.200,119.200 210.930,119.200 210.600 C 119.200 210.270,119.456 210.000,119.768 210.000 C 120.081 210.000,120.452 209.475,120.593 208.833 C 120.734 208.192,121.108 207.567,121.424 207.446 C 121.741 207.324,122.000 206.949,122.000 206.613 C 122.000 206.276,122.270 206.000,122.600 206.000 C 122.933 206.000,123.200 205.644,123.200 205.200 C 123.200 204.756,123.467 204.400,123.800 204.400 C 124.130 204.400,124.400 204.128,124.400 203.796 C 124.400 203.464,124.760 202.884,125.200 202.507 C 125.640 202.130,126.000 201.611,126.000 201.354 C 126.000 201.096,126.270 200.782,126.600 200.655 C 126.930 200.529,127.200 200.149,127.200 199.813 C 127.200 199.476,127.470 199.200,127.800 199.200 C 128.130 199.200,128.400 198.924,128.400 198.587 C 128.400 198.251,128.657 197.876,128.972 197.755 C 129.287 197.635,129.727 197.010,129.951 196.368 C 130.175 195.726,130.548 195.200,130.779 195.200 C 131.011 195.200,131.200 194.930,131.200 194.600 C 131.200 194.270,131.449 194.000,131.753 194.000 C 132.058 194.000,132.401 193.640,132.516 193.200 C 132.631 192.760,133.012 192.400,133.363 192.400 C 133.851 192.400,134.000 191.980,134.000 190.600 C 134.000 189.328,133.837 188.800,133.443 188.800 C 133.136 188.800,132.788 188.547,132.670 188.238 C 132.551 187.928,131.902 187.554,131.227 187.406 C 130.552 187.258,130.000 186.961,130.000 186.747 C 130.000 186.533,129.460 186.170,128.800 185.940 C 128.140 185.710,127.600 185.359,127.600 185.161 C 127.600 184.962,127.240 184.800,126.800 184.800 C 126.360 184.800,125.997 184.575,125.993 184.300 C 125.985 183.714,124.269 182.000,123.690 182.000 C 123.472 182.000,123.179 181.685,123.040 181.300 C 121.859 178.033,118.828 175.618,118.145 177.400 M134.400 209.173 C 134.400 209.378,134.040 209.660,133.600 209.800 C 133.160 209.940,132.794 210.267,132.787 210.527 C 132.780 210.787,132.150 211.621,131.387 212.381 C 130.624 213.140,130.000 214.066,130.000 214.438 C 130.000 214.810,129.730 215.218,129.400 215.345 C 129.070 215.471,128.800 215.851,128.800 216.187 C 128.800 216.524,128.569 216.800,128.288 216.800 C 128.006 216.800,127.549 217.295,127.272 217.900 C 126.249 220.136,125.798 220.800,125.305 220.800 C 125.027 220.800,124.800 221.070,124.800 221.400 C 124.800 221.730,124.440 222.360,124.000 222.800 C 122.582 224.218,122.913 226.670,124.806 228.768 C 125.683 229.740,126.400 230.685,126.400 230.868 C 126.400 231.051,126.670 231.200,127.000 231.200 C 127.330 231.200,127.600 231.470,127.600 231.800 C 127.600 232.130,127.870 232.400,128.200 232.400 C 128.530 232.400,128.800 232.590,128.800 232.823 C 128.800 233.055,129.700 234.108,130.800 235.163 C 131.900 236.217,132.800 237.287,132.800 237.540 C 132.800 237.793,133.070 238.000,133.400 238.000 C 133.730 238.000,134.000 238.270,134.000 238.600 C 134.000 238.930,134.315 239.205,134.700 239.212 C 135.367 239.224,135.367 239.244,134.700 239.632 C 134.160 239.947,134.000 240.573,134.000 242.377 C 134.000 244.086,133.839 244.776,133.400 244.945 C 132.960 245.114,132.800 245.809,132.800 247.559 C 132.800 249.145,133.001 250.144,133.400 250.543 C 133.802 250.945,134.000 251.947,134.000 253.584 C 134.000 255.385,134.157 256.085,134.600 256.255 C 134.930 256.382,135.200 256.812,135.200 257.210 C 135.200 258.362,135.639 259.200,136.243 259.200 C 136.591 259.200,136.800 259.635,136.800 260.357 C 136.800 261.017,137.058 261.613,137.400 261.745 C 137.730 261.871,138.000 262.251,138.000 262.587 C 138.000 262.924,138.172 263.200,138.382 263.200 C 138.878 263.200,140.800 265.122,140.800 265.618 C 140.800 265.828,141.070 266.000,141.400 266.000 C 141.730 266.000,142.000 266.170,142.000 266.378 C 142.000 266.730,142.697 267.187,145.200 268.476 C 145.750 268.759,146.438 269.218,146.729 269.495 C 147.019 269.773,147.855 270.000,148.586 270.000 C 149.398 270.000,150.004 270.233,150.145 270.600 C 150.338 271.105,151.615 271.200,158.216 271.200 C 164.653 271.200,166.165 271.093,166.657 270.600 C 166.987 270.270,167.744 270.000,168.340 270.000 C 168.935 270.000,169.730 269.640,170.107 269.200 C 170.484 268.760,171.154 268.400,171.596 268.400 C 172.044 268.400,172.400 268.134,172.400 267.800 C 172.400 267.467,172.756 267.200,173.200 267.200 C 173.644 267.200,174.000 266.933,174.000 266.600 C 174.000 266.270,174.270 266.000,174.600 266.000 C 174.930 266.000,175.200 265.730,175.200 265.400 C 175.200 265.070,175.487 264.800,175.837 264.800 C 176.188 264.800,176.569 264.440,176.684 264.000 C 176.799 263.560,177.142 263.200,177.447 263.200 C 177.751 263.200,178.000 262.930,178.000 262.600 C 178.000 262.270,178.270 262.000,178.600 262.000 C 178.933 262.000,179.200 261.644,179.200 261.200 C 179.200 260.760,179.456 260.400,179.768 260.400 C 180.082 260.400,180.462 259.828,180.617 259.123 C 180.771 258.420,181.146 257.597,181.449 257.294 C 181.752 256.991,182.000 256.055,182.000 255.214 C 182.000 254.224,182.212 253.604,182.600 253.455 C 183.093 253.266,183.200 252.253,183.200 247.800 C 183.200 243.347,183.093 242.334,182.600 242.145 C 182.213 241.996,182.000 241.378,182.000 240.406 C 182.000 239.554,181.739 238.682,181.400 238.400 C 181.070 238.126,180.800 237.571,180.800 237.167 C 180.800 236.762,180.462 236.109,180.050 235.716 C 179.637 235.322,179.175 234.595,179.023 234.100 C 178.871 233.605,178.578 233.200,178.373 233.200 C 178.168 233.200,178.000 232.991,178.000 232.736 C 178.000 232.030,174.315 228.800,173.509 228.800 C 173.119 228.800,172.800 228.542,172.800 228.227 C 172.800 227.912,172.440 227.540,172.000 227.400 C 171.560 227.260,171.200 226.993,171.200 226.805 C 171.200 226.617,170.615 226.337,169.900 226.182 C 169.185 226.026,168.482 225.713,168.337 225.486 C 168.192 225.258,167.023 224.985,165.739 224.878 C 164.235 224.754,163.237 224.456,162.934 224.042 C 162.208 223.051,153.710 223.102,153.151 224.102 C 152.285 225.649,149.907 225.018,147.961 222.725 C 146.993 221.584,145.255 219.686,144.100 218.507 C 142.945 217.329,142.000 216.291,142.000 216.201 C 142.000 215.866,139.950 214.000,139.582 214.000 C 139.372 214.000,139.200 213.730,139.200 213.400 C 139.200 213.070,138.930 212.800,138.600 212.800 C 138.270 212.800,138.000 212.520,138.000 212.179 C 138.000 211.246,135.901 208.800,135.100 208.800 C 134.715 208.800,134.400 208.968,134.400 209.173 M303.600 210.381 C 303.600 210.590,302.970 211.373,302.200 212.121 C 301.430 212.869,300.800 213.771,300.800 214.126 C 300.800 214.481,300.440 214.965,300.000 215.200 C 299.560 215.435,299.192 215.847,299.183 216.114 C 299.174 216.381,298.634 217.042,297.983 217.581 C 297.332 218.121,296.800 218.796,296.800 219.081 C 296.800 219.367,296.530 219.600,296.200 219.600 C 295.870 219.600,295.600 219.780,295.600 220.000 C 295.600 220.220,295.285 220.760,294.900 221.200 C 294.515 221.640,293.885 222.360,293.500 222.800 C 293.115 223.240,292.800 223.870,292.800 224.200 C 292.800 224.530,292.600 224.800,292.356 224.800 C 290.872 224.800,289.358 227.779,290.600 228.255 C 290.930 228.382,291.200 228.812,291.200 229.210 C 291.200 230.362,291.639 231.200,292.243 231.200 C 292.597 231.200,292.800 231.643,292.800 232.413 C 292.800 233.121,293.049 233.721,293.400 233.855 C 293.730 233.982,294.000 234.522,294.000 235.055 C 294.000 235.589,294.259 236.124,294.576 236.246 C 294.892 236.367,295.269 237.004,295.413 237.660 C 295.557 238.317,295.928 238.951,296.238 239.070 C 296.547 239.188,296.800 239.787,296.800 240.400 C 296.800 241.022,297.065 241.616,297.400 241.745 C 297.730 241.871,298.000 242.436,298.000 243.000 C 298.000 243.564,298.270 244.129,298.600 244.255 C 298.930 244.382,299.200 244.812,299.200 245.210 C 299.200 246.362,299.639 247.200,300.243 247.200 C 300.623 247.200,300.800 247.692,300.800 248.751 C 300.800 249.642,301.055 250.514,301.400 250.800 C 301.730 251.074,302.000 251.822,302.000 252.462 C 302.000 253.127,302.257 253.724,302.600 253.855 C 302.930 253.982,303.202 254.561,303.205 255.143 C 303.214 256.816,303.646 258.000,304.247 258.000 C 304.643 258.000,304.800 258.560,304.800 259.971 C 304.800 261.190,305.029 262.172,305.400 262.543 C 305.788 262.931,306.000 263.921,306.000 265.343 C 306.000 266.795,306.210 267.753,306.619 268.162 C 307.541 269.084,307.545 285.572,306.623 286.889 C 306.280 287.378,306.000 288.291,306.000 288.918 C 306.000 289.544,305.730 290.327,305.400 290.657 C 305.070 290.987,304.800 291.610,304.800 292.041 C 304.800 292.472,304.530 292.929,304.200 293.055 C 303.870 293.182,303.600 293.538,303.600 293.847 C 303.600 294.155,303.240 294.716,302.800 295.093 C 302.360 295.470,302.000 296.008,302.000 296.289 C 302.000 296.570,301.730 296.800,301.400 296.800 C 301.070 296.800,300.800 297.070,300.800 297.400 C 300.800 297.730,300.530 298.000,300.200 298.000 C 299.870 298.000,299.600 298.189,299.600 298.420 C 299.600 298.652,298.970 299.104,298.200 299.426 C 297.430 299.748,296.800 300.188,296.800 300.405 C 296.800 300.622,296.459 300.800,296.043 300.800 C 295.626 300.800,295.182 301.070,295.055 301.400 C 294.912 301.774,294.301 302.000,293.432 302.000 C 292.666 302.000,291.896 302.245,291.720 302.545 C 291.520 302.887,290.279 303.187,288.400 303.347 C 286.445 303.514,285.245 303.812,284.956 304.202 C 284.316 305.064,277.743 305.053,276.787 304.188 C 276.326 303.771,274.854 303.496,272.164 303.325 C 269.697 303.168,268.015 302.872,267.680 302.537 C 267.374 302.231,266.283 302.000,265.143 302.000 C 263.898 302.000,262.916 301.773,262.543 301.400 C 262.172 301.029,261.190 300.800,259.971 300.800 C 258.560 300.800,258.000 300.643,258.000 300.247 C 258.000 299.646,256.816 299.214,255.143 299.205 C 254.561 299.202,253.982 298.930,253.855 298.600 C 253.719 298.245,253.118 298.000,252.384 298.000 C 251.701 298.000,250.873 297.730,250.543 297.400 C 250.213 297.070,249.326 296.800,248.571 296.800 C 247.668 296.800,247.200 296.610,247.200 296.245 C 247.200 295.929,246.611 295.579,245.840 295.434 C 245.092 295.294,244.260 294.914,243.991 294.589 C 243.722 294.265,243.087 294.000,242.580 294.000 C 242.072 294.000,241.387 293.730,241.057 293.400 C 240.727 293.070,240.158 292.800,239.792 292.800 C 239.426 292.800,238.669 292.440,238.109 292.000 C 237.550 291.560,236.751 291.200,236.334 291.200 C 235.916 291.200,235.471 290.930,235.345 290.600 C 235.216 290.265,234.622 290.000,234.000 290.000 C 233.378 290.000,232.784 289.735,232.655 289.400 C 232.529 289.070,232.149 288.800,231.813 288.800 C 231.476 288.800,230.840 288.440,230.400 288.000 C 229.960 287.560,229.330 287.200,229.000 287.200 C 228.670 287.200,228.400 287.034,228.400 286.832 C 228.400 286.629,227.875 286.348,227.233 286.207 C 226.592 286.066,225.967 285.692,225.846 285.376 C 225.721 285.050,225.098 284.800,224.413 284.800 C 223.639 284.800,223.200 284.597,223.200 284.239 C 223.200 283.931,222.705 283.483,222.100 283.245 C 220.649 282.673,219.475 281.917,219.080 281.300 C 218.904 281.025,218.328 280.800,217.800 280.800 C 217.272 280.800,216.696 280.575,216.520 280.300 C 216.023 279.523,213.702 278.000,213.016 278.000 C 212.677 278.000,212.400 277.730,212.400 277.400 C 212.400 276.886,211.403 276.578,210.300 276.753 C 210.135 276.779,210.045 276.603,210.100 276.363 C 210.155 276.122,209.840 275.717,209.400 275.463 C 208.960 275.208,208.456 274.775,208.280 274.500 C 208.104 274.225,207.519 274.000,206.980 274.000 C 206.376 274.000,206.000 273.770,206.000 273.400 C 206.000 273.070,205.775 272.795,205.500 272.789 C 205.225 272.783,204.462 272.230,203.804 271.560 C 203.146 270.890,202.111 270.242,201.504 270.121 C 200.897 269.999,200.400 269.653,200.400 269.350 C 200.400 269.048,200.130 268.800,199.800 268.800 C 199.470 268.800,199.200 268.616,199.200 268.391 C 199.200 268.167,198.705 267.765,198.100 267.500 C 197.495 267.234,196.856 266.788,196.680 266.508 C 196.504 266.229,196.099 266.000,195.780 266.000 C 195.461 266.000,195.200 265.730,195.200 265.400 C 195.200 265.070,194.949 264.800,194.643 264.800 C 194.336 264.800,193.988 264.547,193.870 264.238 C 193.751 263.928,193.102 263.554,192.427 263.406 C 191.752 263.258,191.200 262.881,191.200 262.568 C 191.200 262.163,190.694 262.000,189.443 262.000 C 187.645 262.000,187.200 262.395,187.200 263.990 C 187.200 264.388,186.930 264.818,186.600 264.945 C 186.270 265.071,186.000 265.636,186.000 266.200 C 186.000 266.764,185.730 267.329,185.400 267.455 C 185.070 267.582,184.800 267.936,184.800 268.243 C 184.800 268.549,184.530 268.800,184.200 268.800 C 183.870 268.800,183.600 268.972,183.600 269.182 C 183.600 269.678,181.678 271.600,181.182 271.600 C 180.972 271.600,180.800 271.870,180.800 272.200 C 180.800 272.530,180.549 272.800,180.243 272.800 C 179.936 272.800,179.582 273.070,179.455 273.400 C 179.329 273.730,178.895 274.000,178.493 274.000 C 177.370 274.000,176.800 274.814,176.800 276.418 C 176.800 277.741,177.715 279.200,178.544 279.200 C 178.698 279.200,179.403 279.830,180.110 280.600 C 180.816 281.370,181.621 282.000,181.897 282.000 C 182.174 282.000,182.400 282.270,182.400 282.600 C 182.400 282.956,182.767 283.200,183.302 283.200 C 183.844 283.200,184.670 283.759,185.372 284.600 C 186.014 285.370,186.778 286.000,187.070 286.000 C 187.361 286.000,187.600 286.270,187.600 286.600 C 187.600 286.930,187.861 287.200,188.180 287.200 C 188.499 287.200,188.904 287.429,189.080 287.708 C 189.256 287.988,189.895 288.434,190.500 288.700 C 191.105 288.965,191.600 289.367,191.600 289.591 C 191.600 289.816,191.870 290.000,192.200 290.000 C 192.530 290.000,192.800 290.270,192.800 290.600 C 192.800 290.930,193.070 291.200,193.400 291.200 C 193.730 291.200,194.360 291.560,194.800 292.000 C 195.240 292.440,195.870 292.800,196.200 292.800 C 196.530 292.800,196.800 293.070,196.800 293.400 C 196.800 293.730,197.070 294.000,197.400 294.000 C 197.730 294.000,198.000 294.177,198.000 294.392 C 198.000 294.608,198.489 294.908,199.087 295.058 C 199.685 295.208,200.787 295.926,201.537 296.654 C 202.287 297.382,203.237 298.085,203.650 298.216 C 204.062 298.347,204.400 298.622,204.400 298.827 C 204.400 299.032,204.760 299.200,205.200 299.200 C 205.640 299.200,206.000 299.458,206.000 299.773 C 206.000 300.088,206.360 300.460,206.800 300.600 C 207.240 300.740,207.600 301.007,207.600 301.195 C 207.600 301.383,208.140 301.655,208.800 301.800 C 209.460 301.945,210.000 302.319,210.000 302.632 C 210.000 302.944,210.270 303.200,210.600 303.200 C 210.930 303.200,211.560 303.560,212.000 304.000 C 212.440 304.440,213.070 304.800,213.400 304.800 C 213.730 304.800,214.000 304.971,214.000 305.180 C 214.000 305.389,214.900 305.973,216.000 306.478 C 217.100 306.982,218.000 307.613,218.000 307.880 C 218.000 308.146,218.630 308.482,219.400 308.626 C 220.202 308.777,220.800 309.126,220.800 309.445 C 220.800 309.750,221.076 310.000,221.413 310.000 C 221.749 310.000,222.129 310.270,222.255 310.600 C 222.387 310.942,222.983 311.200,223.643 311.200 C 224.413 311.200,224.800 311.404,224.800 311.810 C 224.800 312.165,225.291 312.518,225.974 312.655 C 226.620 312.784,227.245 313.140,227.362 313.445 C 227.479 313.750,227.831 314.000,228.145 314.000 C 228.458 314.000,228.818 314.270,228.945 314.600 C 229.079 314.951,229.679 315.200,230.387 315.200 C 231.168 315.200,231.600 315.402,231.600 315.768 C 231.600 316.081,232.125 316.452,232.767 316.593 C 233.408 316.734,234.033 317.108,234.154 317.424 C 234.279 317.750,234.902 318.000,235.587 318.000 C 236.399 318.000,236.800 318.199,236.800 318.600 C 236.800 318.930,237.138 319.200,237.551 319.200 C 237.964 319.200,238.520 319.463,238.787 319.785 C 239.054 320.106,239.653 320.490,240.117 320.637 C 240.582 320.785,241.209 321.152,241.510 321.453 C 241.811 321.754,242.385 322.000,242.786 322.000 C 243.187 322.000,243.618 322.270,243.745 322.600 C 243.871 322.930,244.431 323.200,244.987 323.200 C 245.544 323.200,246.360 323.560,246.800 324.000 C 247.240 324.440,247.883 324.800,248.229 324.800 C 248.574 324.800,249.127 325.070,249.457 325.400 C 249.787 325.730,250.590 326.000,251.241 326.000 C 251.925 326.000,252.522 326.254,252.655 326.600 C 252.782 326.930,253.366 327.200,253.954 327.200 C 254.541 327.200,255.330 327.560,255.707 328.000 C 256.084 328.440,256.732 328.800,257.147 328.800 C 257.562 328.800,258.126 329.070,258.400 329.400 C 258.674 329.730,259.512 330.000,260.262 330.000 C 261.105 330.000,261.713 330.229,261.855 330.600 C 261.987 330.942,262.583 331.200,263.243 331.200 C 263.879 331.200,264.760 331.560,265.200 332.000 C 265.695 332.495,266.533 332.800,267.400 332.800 C 268.378 332.800,268.800 332.981,268.800 333.400 C 268.800 333.830,269.239 334.000,270.351 334.000 C 271.242 334.000,272.114 334.255,272.400 334.600 C 272.686 334.945,273.558 335.200,274.449 335.200 C 275.302 335.200,276.000 335.351,276.000 335.536 C 276.000 336.078,277.928 336.800,279.376 336.800 C 280.197 336.800,280.803 337.032,280.945 337.400 C 281.113 337.840,281.807 338.000,283.545 338.000 C 285.282 338.000,285.976 338.160,286.145 338.600 C 286.323 339.064,287.101 339.200,289.587 339.200 C 292.047 339.200,292.800 339.329,292.800 339.750 C 292.800 340.667,294.916 340.823,306.800 340.781 C 318.864 340.739,320.400 340.625,320.400 339.774 C 320.400 339.414,321.079 339.203,322.500 339.121 C 323.918 339.039,324.568 338.838,324.500 338.500 C 324.434 338.169,324.924 338.000,325.951 338.000 C 326.811 338.000,327.714 337.744,327.979 337.426 C 328.241 337.110,328.995 336.733,329.655 336.588 C 330.314 336.443,330.951 336.072,331.070 335.762 C 331.188 335.453,331.536 335.200,331.843 335.200 C 332.149 335.200,332.400 335.014,332.400 334.787 C 332.400 334.561,332.701 334.259,333.069 334.118 C 333.862 333.814,334.617 333.197,336.507 331.307 C 338.663 329.151,339.200 328.451,339.200 327.800 C 339.200 327.470,339.467 327.200,339.792 327.200 C 340.118 327.200,340.496 326.757,340.632 326.216 C 340.767 325.675,341.131 325.023,341.439 324.767 C 341.748 324.511,342.000 323.868,342.000 323.338 C 342.000 322.809,342.270 322.271,342.600 322.145 C 342.951 322.010,343.200 321.411,343.200 320.701 C 343.200 320.034,343.498 319.270,343.862 319.004 C 344.301 318.683,344.589 317.723,344.716 316.160 C 344.821 314.862,345.108 313.672,345.354 313.515 C 346.084 313.049,346.200 294.965,345.479 293.862 C 345.169 293.388,344.825 291.576,344.714 289.836 C 344.567 287.536,344.333 286.540,343.856 286.191 C 343.382 285.845,343.200 285.084,343.200 283.443 C 343.200 281.796,343.036 281.112,342.600 280.945 C 342.188 280.787,342.000 280.143,342.000 278.889 C 342.000 277.885,341.748 276.779,341.440 276.431 C 341.132 276.084,340.790 275.114,340.681 274.277 C 340.571 273.439,340.193 272.435,339.841 272.045 C 339.488 271.656,339.200 270.766,339.200 270.069 C 339.200 269.208,339.007 268.800,338.600 268.800 C 338.155 268.800,338.000 268.332,338.000 266.987 C 338.000 265.745,337.811 265.102,337.400 264.945 C 337.070 264.818,336.800 264.388,336.800 263.990 C 336.800 262.838,336.361 262.000,335.757 262.000 C 335.373 262.000,335.200 261.499,335.200 260.387 C 335.200 259.323,334.996 258.697,334.600 258.545 C 334.256 258.413,334.000 257.815,334.000 257.145 C 334.000 256.501,333.748 255.878,333.439 255.760 C 333.131 255.641,332.763 254.927,332.621 254.172 C 332.468 253.356,332.128 252.800,331.782 252.800 C 331.401 252.800,331.200 252.382,331.200 251.587 C 331.200 250.879,330.951 250.279,330.600 250.145 C 330.258 250.013,330.000 249.417,330.000 248.757 C 330.000 248.036,329.790 247.600,329.445 247.600 C 329.126 247.600,328.777 247.002,328.626 246.200 C 328.469 245.362,328.130 244.800,327.782 244.800 C 327.402 244.800,327.200 244.383,327.200 243.600 C 327.200 242.940,327.011 242.400,326.779 242.400 C 326.548 242.400,326.170 241.860,325.940 241.200 C 325.710 240.540,325.359 240.000,325.161 240.000 C 324.962 240.000,324.800 239.646,324.800 239.214 C 324.800 238.782,324.440 238.235,324.000 238.000 C 323.547 237.758,323.200 237.162,323.200 236.629 C 323.200 236.110,322.953 235.591,322.651 235.475 C 322.350 235.359,321.982 234.785,321.835 234.198 C 321.688 233.611,321.392 232.922,321.176 232.666 C 319.515 230.688,319.200 230.189,319.200 229.539 C 319.200 229.132,318.930 228.800,318.600 228.800 C 318.263 228.800,318.000 228.443,318.000 227.984 C 318.000 226.980,316.442 224.800,315.725 224.800 C 315.407 224.800,315.200 224.321,315.200 223.587 C 315.200 222.879,314.951 222.279,314.600 222.145 C 314.270 222.018,314.000 221.664,314.000 221.357 C 314.000 221.051,313.730 220.800,313.400 220.800 C 313.067 220.800,312.800 220.444,312.800 220.000 C 312.800 219.560,312.440 218.840,312.000 218.400 C 311.560 217.960,311.200 217.420,311.200 217.200 C 311.200 216.980,310.930 216.800,310.600 216.800 C 310.263 216.800,310.000 216.443,310.000 215.984 C 310.000 214.980,308.442 212.800,307.725 212.800 C 307.413 212.800,307.200 212.331,307.200 211.643 C 307.200 210.957,306.942 210.387,306.567 210.243 C 305.583 209.865,303.600 209.957,303.600 210.381 M241.700 215.618 C 241.205 215.814,240.800 216.160,240.800 216.387 C 240.800 216.614,240.170 216.800,239.400 216.800 C 238.422 216.800,238.000 216.981,238.000 217.400 C 238.000 217.800,237.600 218.000,236.800 218.000 C 236.100 218.000,235.600 218.211,235.600 218.505 C 235.600 218.783,235.195 219.195,234.700 219.420 C 234.205 219.645,233.845 220.048,233.900 220.315 C 233.955 220.582,233.865 220.771,233.700 220.736 C 232.615 220.507,230.541 222.299,230.167 223.790 C 230.027 224.345,229.663 224.800,229.357 224.800 C 229.050 224.800,228.800 225.070,228.800 225.400 C 228.800 225.730,228.538 226.000,228.218 226.000 C 227.872 226.000,227.532 226.556,227.379 227.372 C 227.237 228.127,226.869 228.841,226.561 228.960 C 226.194 229.100,226.000 229.802,226.000 230.987 C 226.000 232.332,225.845 232.800,225.400 232.800 C 224.893 232.800,224.800 233.751,224.800 238.957 C 224.800 244.061,224.903 245.154,225.400 245.345 C 225.730 245.471,226.000 245.921,226.000 246.345 C 226.000 246.768,225.730 247.218,225.400 247.345 C 225.070 247.471,224.800 247.851,224.800 248.187 C 224.800 248.533,224.452 248.800,224.000 248.800 C 223.556 248.800,223.200 249.067,223.200 249.400 C 223.200 249.730,222.930 250.000,222.600 250.000 C 222.270 250.000,221.640 250.360,221.200 250.800 C 220.760 251.240,220.220 251.600,220.000 251.600 C 219.780 251.600,219.600 251.870,219.600 252.200 C 219.600 252.530,219.367 252.800,219.081 252.800 C 218.796 252.800,218.121 253.332,217.581 253.983 C 217.042 254.634,216.387 255.174,216.127 255.183 C 215.867 255.192,215.540 255.560,215.400 256.000 C 215.237 256.515,214.795 256.800,214.160 256.800 C 213.618 256.800,213.071 257.070,212.945 257.400 C 212.818 257.730,212.464 258.000,212.157 258.000 C 211.851 258.000,211.600 258.287,211.600 258.637 C 211.600 258.988,211.240 259.369,210.800 259.484 C 210.153 259.653,210.000 260.030,210.000 261.447 C 210.000 262.933,210.122 263.200,210.800 263.200 C 211.244 263.200,211.600 263.467,211.600 263.800 C 211.600 264.130,211.842 264.400,212.138 264.400 C 212.434 264.400,213.002 264.760,213.400 265.200 C 213.798 265.640,214.456 266.000,214.862 266.000 C 215.268 266.000,215.600 266.270,215.600 266.600 C 215.600 266.930,215.920 267.200,216.311 267.200 C 216.702 267.200,217.330 267.560,217.707 268.000 C 218.084 268.440,218.645 268.800,218.953 268.800 C 219.262 268.800,219.618 269.070,219.745 269.400 C 219.871 269.730,220.431 270.000,220.987 270.000 C 221.621 270.000,222.000 270.225,222.000 270.600 C 222.000 270.933,222.356 271.200,222.800 271.200 C 223.240 271.200,223.600 271.449,223.600 271.753 C 223.600 272.995,227.741 273.203,228.493 272.000 C 228.768 271.560,229.219 271.200,229.496 271.200 C 229.773 271.200,230.000 270.930,230.000 270.600 C 230.000 270.270,230.270 270.000,230.600 270.000 C 230.930 270.000,231.560 269.640,232.000 269.200 C 232.440 268.760,232.986 268.400,233.213 268.400 C 233.439 268.400,233.729 268.130,233.855 267.800 C 233.982 267.470,234.336 267.200,234.643 267.200 C 234.949 267.200,235.200 267.028,235.200 266.818 C 235.200 266.322,237.122 264.400,237.618 264.400 C 237.828 264.400,238.000 264.130,238.000 263.800 C 238.000 263.470,238.270 263.200,238.600 263.200 C 238.930 263.200,239.200 262.930,239.200 262.600 C 239.200 261.700,244.612 261.732,244.958 262.634 C 245.274 263.459,254.424 263.333,254.701 262.500 C 254.804 262.190,255.618 262.000,256.846 262.000 C 258.236 262.000,258.894 261.821,259.055 261.400 C 259.182 261.070,259.612 260.800,260.010 260.800 C 261.162 260.800,262.000 260.361,262.000 259.757 C 262.000 259.405,262.441 259.200,263.200 259.200 C 264.000 259.200,264.400 259.000,264.400 258.600 C 264.400 258.270,264.625 257.997,264.900 257.993 C 265.510 257.985,267.200 256.258,267.200 255.644 C 267.200 255.400,267.425 255.197,267.700 255.193 C 268.310 255.185,270.000 253.458,270.000 252.844 C 270.000 252.600,270.270 252.400,270.600 252.400 C 271.000 252.400,271.200 252.000,271.200 251.200 C 271.200 250.441,271.405 250.000,271.757 250.000 C 272.363 250.000,272.800 249.162,272.800 248.001 C 272.800 247.597,273.025 247.192,273.300 247.101 C 274.131 246.824,274.247 231.903,273.424 231.220 C 273.081 230.935,272.800 230.274,272.800 229.751 C 272.800 229.228,272.440 228.440,272.000 228.000 C 271.560 227.560,271.200 226.930,271.200 226.600 C 271.200 226.270,271.011 226.000,270.779 226.000 C 270.548 226.000,270.175 225.474,269.951 224.832 C 269.727 224.190,269.287 223.565,268.972 223.445 C 268.657 223.324,268.400 222.949,268.400 222.613 C 268.400 222.276,268.130 222.000,267.800 222.000 C 267.470 222.000,267.200 221.730,267.200 221.400 C 267.200 221.070,266.949 220.800,266.643 220.800 C 266.336 220.800,265.988 220.547,265.870 220.238 C 265.751 219.928,265.102 219.554,264.427 219.406 C 263.752 219.258,263.200 218.881,263.200 218.568 C 263.200 218.256,262.917 218.000,262.571 218.000 C 262.226 218.000,261.673 217.730,261.343 217.400 C 261.013 217.070,260.191 216.800,259.516 216.800 C 258.808 216.800,258.071 216.503,257.777 216.100 C 257.201 215.312,243.511 214.902,241.700 215.618 " stroke="none" fill="#2aabe2" fill-rule="evenodd"></path><path id="path3" d="M237.429 79.829 C 236.477 80.780,236.676 81.028,237.700 80.166 C 238.195 79.750,238.675 79.362,238.767 79.304 C 238.858 79.247,238.736 79.200,238.495 79.200 C 238.254 79.200,237.774 79.483,237.429 79.829 M214.000 114.367 C 214.000 114.772,215.556 115.782,215.795 115.532 C 215.865 115.460,215.489 115.077,214.961 114.681 C 214.432 114.286,214.000 114.145,214.000 114.367 M248.800 174.315 C 248.800 174.484,249.160 174.930,249.600 175.307 C 250.040 175.684,250.400 175.854,250.400 175.685 C 250.400 175.516,250.040 175.070,249.600 174.693 C 249.160 174.316,248.800 174.146,248.800 174.315 M132.456 187.966 C 132.975 188.387,133.490 188.642,133.599 188.533 C 133.834 188.300,132.415 187.200,131.879 187.200 C 131.677 187.200,131.936 187.545,132.456 187.966 M134.171 190.000 C 134.171 190.440,134.313 190.800,134.486 190.800 C 134.659 190.800,134.800 190.440,134.800 190.000 C 134.800 189.560,134.659 189.200,134.486 189.200 C 134.313 189.200,134.171 189.560,134.171 190.000 M176.419 264.505 L 175.495 265.800 176.626 264.712 C 177.249 264.114,177.664 263.531,177.550 263.417 C 177.436 263.303,176.927 263.793,176.419 264.505 " stroke="none" fill="#00ffff" fill-rule="evenodd"></path><path id="path4" d="" stroke="none" fill="#80ffff" fill-rule="evenodd"></path></g></svg>
